<?xml version="1.0" encoding="UTF-8" standalone="no"?>
<svg
   xmlns:dc="http://purl.org/dc/elements/1.1/"
   xmlns:cc="http://creativecommons.org/ns#"
   xmlns:rdf="http://www.w3.org/1999/02/22-rdf-syntax-ns#"
   xmlns:svg="http://www.w3.org/2000/svg"
   xmlns="http://www.w3.org/2000/svg"
   height="50"
   width="225"
   version="1.1">
  <defs
     id="defs15" />
  <g
     transform="matrix(0.76446527,0,0,0.76446527,-266.91783,-233.55935)"
     id="g8">
    <path
       d="m 401.25,305.625 -32,42.1875 24.7812,0 c 3.9925,0 7.21875,-3.265 7.21875,-7.25 l 0,-34.9375 z m -44.875,6.96875 c -3.98875,0 -7.21875,3.26125 -7.21875,7.25 l 0,34.9688 32,-42.2188 -24.7812,0 z"
       id="path10"
       style="fill:#01719f;fill-rule:nonzero" />
    <path
       d="m 361.264,370.413 -1.395,-1.77875 -6.50375,0 c 0.1225,-0.165 7.88875,-10.39 7.88875,-10.39 l -11.4525,0 1.37625,1.7575 6.52625,0 c -0.1225,0.16 -7.92375,10.4075 -7.92375,10.4075 l 11.4838,0.004 z"
       id="path14"
       style="fill:#01719f;fill-rule:nonzero" />
    <path
       d="m 381.415,358.244 -5.30375,0 0,12.13 1.8125,0 0,-10.32 3.235,0 c 3.18125,0 5.08125,1.45125 5.08125,3.88625 l 0,6.43375 1.80875,0 0,-6.52625 c 0,-2.78875 -2.05125,-5.60375 -6.63375,-5.60375"
       id="path16"
       style="fill:#01719f;fill-rule:nonzero" />
    <path
       d="m 399.7,354.782 c 0,0 -10e-4,3.3625 -10e-4,3.46125 l -4.18625,0 c -3.05625,0 -5.455,2.00875 -5.96625,5.00125 -0.0475,0.38875 -0.0738,0.76125 -0.0738,1.06 0,0.435 0.0513,0.86625 0.0738,1.03125 0.50125,2.94625 3.01,5.07375 5.96625,5.07375 l 5.78125,0.004 0,-16.8388 -1.59375,1.2075 z m -0.21875,5.27125 0,8.5525 -4.0025,0 c -1.88125,0 -3.655,-1.45375 -4.1225,-3.37875 0,-0.002 -0.0713,-0.9225 -0.0713,-0.9225 0,-0.25125 0.025,-0.5825 0.0713,-0.92875 0.43125,-1.9875 2.1425,-3.31 4.2675,-3.31 0,0 3.755,-0.0125 3.8575,-0.0125"
       id="path18"
       style="fill:#01719f;fill-rule:nonzero" />
    <path
       d="m 374.266,364.98 0.0312,-0.665 c 0,-3.59125 -2.91875,-6.51125 -6.5075,-6.51125 -3.58875,0 -6.50625,2.92 -6.50625,6.50875 0,3.5875 2.9175,6.5075 6.50625,6.5075 2.7325,0 5.19,-1.72875 6.11875,-4.30625 l -1.935,0 c -0.82125,1.565 -2.415,2.535 -4.18375,2.535 -2.35375,0 -4.34875,-1.75 -4.6775,-4.07625 l 9.48375,0 1.67,0.007 z m -11.055,-1.82 c 0.5225,-2.07875 2.43625,-3.5825 4.57875,-3.5825 2.145,0 4.0575,1.50375 4.5825,3.5825 l -9.16125,0 z"
       id="path20"
       style="fill:#01719f;fill-rule:nonzero" />
  </g>
  <text
     xml:space="preserve"
     style="font-style:normal;font-weight:normal;font-size:40px;line-height:125%;font-family:sans-serif;letter-spacing:0px;word-spacing:0px;fill:#000000;fill-opacity:1;stroke:none;stroke-width:1px;stroke-linecap:butt;stroke-linejoin:miter;stroke-opacity:1"
     x="58.873631"
     y="33.498024"
     id="text3358"><tspan
       id="tspan3360"
       x="58.873631"
       y="33.498024" /></text>
  <g
     id="text3370"
     style="font-style:normal;font-weight:normal;font-size:44.76856232px;line-height:125%;font-family:sans-serif;letter-spacing:0px;word-spacing:0px;fill:#ffffff;fill-opacity:1;stroke:none;stroke-width:1px;stroke-linecap:butt;stroke-linejoin:miter;stroke-opacity:1">
    <path
       id="path4179"
       style="fill:#ffffff;fill-opacity:1"
       d="m 52.050097,4.6650988 27.608738,0 0,3.7161405 -11.585614,0 0,28.9203167 -4.437509,0 0,-28.9203167 -11.585615,0 0,-3.7161405 z" />
    <path
       id="path4181"
       style="fill:#ffffff;fill-opacity:1"
       d="m 91.397467,16.578608 q -0.677649,-0.393474 -1.486456,-0.568351 -0.786948,-0.196737 -1.748772,-0.196737 -3.410106,0 -5.246316,2.229684 -1.814351,2.207825 -1.814351,6.361158 l 0,12.897194 -4.044035,0 0,-24.482808 4.044035,0 0,3.803579 q 1.26786,-2.229684 3.300807,-3.300807 2.032947,-1.092982 4.940281,-1.092982 0.415333,0 0.918105,0.06558 0.502772,0.04372 1.114842,0.153017 l 0.02186,4.131474 z" />
    <path
       id="path4183"
       style="fill:#ffffff;fill-opacity:1"
       d="m 106.78666,24.994573 q -4.8747,0 -6.75463,1.114842 -1.879929,1.114842 -1.879929,3.803579 0,2.142246 1.399018,3.410105 1.420881,1.246 3.847301,1.246 3.34452,0 5.35561,-2.360842 2.03295,-2.382702 2.03295,-6.317438 l 0,-0.896246 -4.00032,0 z m 8.02249,-1.661333 0,13.968316 -4.02217,0 0,-3.716141 q -1.37716,2.229684 -3.43197,3.300807 -2.0548,1.049263 -5.02772,1.049263 -3.759855,0 -5.98954,-2.098526 -2.207824,-2.120386 -2.207824,-5.661649 0,-4.131474 2.754316,-6.23 2.776175,-2.098527 8.262948,-2.098527 l 5.63979,0 0,-0.393473 q 0,-2.776176 -1.83621,-4.284492 -1.81435,-1.530175 -5.11516,-1.530175 -2.09853,0 -4.087754,0.502772 -1.989228,0.502772 -3.825439,1.508316 l 0,-3.716141 q 2.207825,-0.852526 4.284493,-1.267859 2.07666,-0.437193 4.04403,-0.437193 5.3119,0 7.93506,2.754315 2.62315,2.754316 2.62315,8.350387 z" />
    <path
       id="path4185"
       style="fill:#ffffff;fill-opacity:1"
       d="m 123.11582,12.818748 4.02218,0 0,24.482808 -4.02218,0 0,-24.482808 z m 0,-9.5308071 4.02218,0 0,5.0932984 -4.02218,0 0,-5.0932984 z" />
    <path
       id="path4187"
       style="fill:#ffffff;fill-opacity:1"
       d="m 155.88343,22.524433 0,14.777123 -4.02218,0 0,-14.645966 q 0,-3.475684 -1.35529,-5.202596 -1.3553,-1.726912 -4.0659,-1.726912 -3.25709,0 -5.13702,2.076666 -1.87993,2.076667 -1.87993,5.661649 l 0,13.837159 -4.04403,0 0,-24.482808 4.04403,0 0,3.803579 q 1.44274,-2.207824 3.38825,-3.300807 1.96737,-1.092982 4.52495,-1.092982 4.21891,0 6.38301,2.623158 2.16411,2.601298 2.16411,7.672737 z" />
    <path
       id="path4189"
       style="fill:#ffffff;fill-opacity:1"
       d="m 163.94964,12.818748 4.02218,0 0,24.482808 -4.02218,0 0,-24.482808 z m 0,-9.5308071 4.02218,0 0,5.0932984 -4.02218,0 0,-5.0932984 z" />
    <path
       id="path4191"
       style="fill:#ffffff;fill-opacity:1"
       d="m 196.71726,22.524433 0,14.777123 -4.02217,0 0,-14.645966 q 0,-3.475684 -1.3553,-5.202596 -1.3553,-1.726912 -4.0659,-1.726912 -3.25709,0 -5.13702,2.076666 -1.87993,2.076667 -1.87993,5.661649 l 0,13.837159 -4.04403,0 0,-24.482808 4.04403,0 0,3.803579 q 1.44274,-2.207824 3.38825,-3.300807 1.96737,-1.092982 4.52495,-1.092982 4.21891,0 6.38302,2.623158 2.1641,2.601298 2.1641,7.672737 z" />
    <path
       id="path4193"
       style="fill:#ffffff;fill-opacity:1"
       d="m 220.89403,24.775976 q 0,-4.371929 -1.81435,-6.776491 -1.79249,-2.404561 -5.04958,-2.404561 -3.23523,0 -5.04958,2.404561 -1.79249,2.404562 -1.79249,6.776491 0,4.350071 1.79249,6.754632 1.81435,2.404562 5.04958,2.404562 3.25709,0 5.04958,-2.404562 1.81435,-2.404561 1.81435,-6.754632 z m 4.02218,9.487088 q 0,6.25186 -2.77618,9.290351 -2.77618,3.060351 -8.5034,3.060351 -2.12039,0 -4.00032,-0.327894 -1.87993,-0.306035 -3.65056,-0.961825 l 0,-3.912877 q 1.77063,0.961824 3.49754,1.420877 1.72692,0.459053 3.51941,0.459053 3.95659,0 5.92396,-2.076667 1.96737,-2.054807 1.96737,-6.23 l 0,-1.989228 q -1.246,2.164105 -3.19151,3.235228 -1.94551,1.071123 -4.6561,1.071123 -4.50309,0 -7.25741,-3.431965 -2.75431,-3.431965 -2.75431,-9.093615 0,-5.683508 2.75431,-9.115473 2.75432,-3.431965 7.25741,-3.431965 2.71059,0 4.6561,1.071122 1.94551,1.071123 3.19151,3.235229 l 0,-3.716141 4.02218,0 0,21.444316 z" />
  </g>
</svg>
