<?xml version="1.0" encoding="UTF-8" standalone="no"?>
<svg
   xmlns:dc="http://purl.org/dc/elements/1.1/"
   xmlns:cc="http://creativecommons.org/ns#"
   xmlns:rdf="http://www.w3.org/1999/02/22-rdf-syntax-ns#"
   xmlns:svg="http://www.w3.org/2000/svg"
   xmlns="http://www.w3.org/2000/svg"
   height="22.5"
   width="150"
   version="1.1"
   id="svg2">
  <defs
     id="defs9" />
  <g
     transform="matrix(1.5076926,0,0,1.5076926,-0.38463,-0.05769415)"
     id="text3370"
     style="font-style:normal;font-weight:normal;font-size:14.84276962px;line-height:125%;font-family:sans-serif;letter-spacing:0px;word-spacing:0px;fill:#ffffff;fill-opacity:1;stroke:none;stroke-width:1px;stroke-linecap:butt;stroke-linejoin:miter;stroke-opacity:1">
    <path
       style="fill:#ffffff;fill-opacity:1"
       id="path3473"
       d="m 0.42746826,0.77436964 8.50125424,0 0,1.11610666 -6.8415891,8.4722647 7.0082804,0 0,1.232066 -8.8346368,0 0,-1.116107 6.8415891,-8.4722645 -6.67489784,0 0,-1.23206586 z" />
    <path
       style="fill:#ffffff;fill-opacity:1"
       id="path3475"
       d="m 18.111237,7.2028543 0,0.6522702 -6.13134,0 q 0.08697,1.3770147 0.826209,2.1017594 0.746487,0.7174971 2.07277,0.7174971 0.768229,0 1.485726,-0.188434 0.724745,-0.188433 1.434994,-0.5653004 l 0,1.2610554 q -0.717497,0.304393 -1.471231,0.463837 -0.753735,0.159444 -1.529211,0.159444 -1.942316,0 -3.080165,-1.130602 -1.130602,-1.1306016 -1.130602,-3.0584222 0,-1.9930477 1.072622,-3.1598865 1.07987,-1.1740863 2.906226,-1.1740863 1.637923,0 2.587339,1.0581271 0.956663,1.0508797 0.956663,2.8627412 z M 16.777706,6.8114922 Q 16.763212,5.7171279 16.161674,5.0648577 15.567383,4.4125876 14.58173,4.4125876 q -1.116106,0 -1.790119,0.6305278 -0.666765,0.6305278 -0.768229,1.7756243 l 4.754324,-0.00725 z" />
    <path
       style="fill:#ffffff;fill-opacity:1"
       id="path3477"
       d="m 27.047339,6.6955331 0,4.8992739 -1.33353,0 0,-4.8557892 q 0,-1.1523439 -0.449342,-1.7248922 -0.449341,-0.5725482 -1.348025,-0.5725482 -1.079869,0 -1.70315,0.6885073 -0.62328,0.6885074 -0.62328,1.8770886 l 0,4.5876337 -1.340777,0 0,-8.11714 1.340777,0 0,1.2610557 q 0.478331,-0.7319921 1.123354,-1.0943644 0.65227,-0.3623723 1.500222,-0.3623723 1.398757,0 2.116254,0.8696935 0.717497,0.8624461 0.717497,2.5438536 z" />
    <path
       style="fill:#ffffff;fill-opacity:1"
       id="path3479"
       d="m 35.063013,4.7097329 0,-4.39195237 1.33353,0 0,11.27702647 -1.33353,0 0,-1.217571 q -0.420352,0.724744 -1.065375,1.079869 -0.637775,0.347878 -1.536458,0.347878 -1.471232,0 -2.398905,-1.174087 -0.920426,-1.1740859 -0.920426,-3.0874117 0,-1.9133258 0.920426,-3.087412 0.927673,-1.1740863 2.398905,-1.1740863 0.898683,0 1.536458,0.3551248 0.645023,0.3478775 1.065375,1.0726221 z m -4.544149,2.8337514 q 0,1.4712316 0.601538,2.3119353 0.608786,0.8334564 1.666913,0.8334564 1.058127,0 1.666912,-0.8334564 0.608786,-0.8407037 0.608786,-2.3119353 0,-1.4712316 -0.608786,-2.3046879 -0.608785,-0.8407037 -1.666912,-0.8407037 -1.058127,0 -1.666913,0.8407037 -0.601538,0.8334563 -0.601538,2.3046879 z" />
    <path
       style="fill:#ffffff;fill-opacity:1"
       id="path3481"
       d="m 42.426416,0.77436964 9.153525,0 0,1.23206586 -3.841147,0 0,9.5883715 -1.471231,0 0,-9.5883715 -3.841147,0 0,-1.23206586 z" />
    <path
       style="fill:#ffffff;fill-opacity:1"
       id="path3483"
       d="M 55.471821,4.7242278 Q 55.24715,4.5937737 54.978995,4.5357942 q -0.260909,-0.065227 -0.579796,-0.065227 -1.130602,0 -1.739387,0.7392395 -0.601538,0.731992 -0.601538,2.1090068 l 0,4.2759935 -1.340778,0 0,-8.11714 1.340778,0 0,1.2610557 q 0.420352,-0.7392395 1.094364,-1.0943644 0.674013,-0.3623723 1.637923,-0.3623723 0.137701,0 0.304393,0.021742 0.166691,0.014495 0.369619,0.050732 l 0.0072,1.3697674 z" />
    <path
       style="fill:#ffffff;fill-opacity:1"
       id="path3485"
       d="m 60.574023,7.5144945 q -1.616181,0 -2.239461,0.3696198 -0.623281,0.3696197 -0.623281,1.2610556 0,0.7102497 0.463837,1.1306011 0.471084,0.413105 1.27555,0.413105 1.10886,0 1.775625,-0.7827243 0.674012,-0.7899716 0.674012,-2.0945119 l 0,-0.2971453 -1.326282,0 z m 2.659812,-0.5508059 0,4.6311184 -1.33353,0 0,-1.232066 q -0.456589,0.739239 -1.137849,1.094364 -0.68126,0.347878 -1.666912,0.347878 -1.246561,0 -1.985801,-0.695755 -0.731992,-0.703002 -0.731992,-1.8770888 0,-1.3697673 0.913179,-2.0655221 0.920425,-0.6957548 2.739534,-0.6957548 l 1.869841,0 0,-0.1304541 q 0,-0.9204256 -0.608785,-1.4204994 -0.601538,-0.5073212 -1.695903,-0.5073212 -0.695754,0 -1.355272,0.1666912 -0.659518,0.1666913 -1.268303,0.5000738 l 0,-1.2320658 q 0.731992,-0.2826504 1.420499,-0.4203519 0.688508,-0.1449489 1.340778,-0.1449489 1.761129,0 2.630823,0.9131782 0.869693,0.9131782 0.869693,2.7685244 z" />
    <path
       style="fill:#ffffff;fill-opacity:1"
       id="path3487"
       d="m 65.987863,3.477667 1.33353,0 0,8.11714 -1.33353,0 0,-8.11714 z m 0,-3.15988647 1.33353,0 0,1.68865497 -1.33353,0 0,-1.68865497 z" />
    <path
       style="fill:#ffffff;fill-opacity:1"
       id="path3489"
       d="m 76.85179,6.6955331 0,4.8992739 -1.33353,0 0,-4.8557892 q 0,-1.1523439 -0.449342,-1.7248922 -0.449341,-0.5725482 -1.348025,-0.5725482 -1.079869,0 -1.70315,0.6885073 -0.62328,0.6885074 -0.62328,1.8770886 l 0,4.5876337 -1.340778,0 0,-8.11714 1.340778,0 0,1.2610557 q 0.478331,-0.7319921 1.123354,-1.0943644 0.65227,-0.3623723 1.500222,-0.3623723 1.398757,0 2.116254,0.8696935 0.717497,0.8624461 0.717497,2.5438536 z" />
    <path
       style="fill:#ffffff;fill-opacity:1"
       id="path3491"
       d="m 79.526094,3.477667 1.33353,0 0,8.11714 -1.33353,0 0,-8.11714 z m 0,-3.15988647 1.33353,0 0,1.68865497 -1.33353,0 0,-1.68865497 z" />
    <path
       style="fill:#ffffff;fill-opacity:1"
       id="path3493"
       d="m 90.390013,6.6955331 0,4.8992739 -1.33353,0 0,-4.8557892 q 0,-1.1523439 -0.449342,-1.7248922 -0.449341,-0.5725482 -1.348025,-0.5725482 -1.079869,0 -1.703149,0.6885073 -0.623281,0.6885074 -0.623281,1.8770886 l 0,4.5876337 -1.340777,0 0,-8.11714 1.340777,0 0,1.2610557 Q 85.411018,4.0067306 86.05604,3.6443583 86.708311,3.281986 87.556262,3.281986 q 1.398757,0 2.116254,0.8696935 0.717497,0.8624461 0.717497,2.5438536 z" />
    <path
       style="fill:#ffffff;fill-opacity:1"
       id="path3495"
       d="m 98.405693,7.4420201 q 0,-1.4494893 -0.601538,-2.2467083 -0.594291,-0.7972191 -1.67416,-0.7972191 -1.072622,0 -1.67416,0.7972191 -0.594291,0.797219 -0.594291,2.2467083 0,1.4422417 0.594291,2.2394608 0.601538,0.7972191 1.67416,0.7972191 1.079869,0 1.67416,-0.7972191 0.601538,-0.7972191 0.601538,-2.2394608 z m 1.33353,3.1453919 q 0,2.072769 -0.920426,3.080164 -0.920425,1.014643 -2.819256,1.014643 -0.703002,0 -1.326283,-0.108712 -0.62328,-0.101464 -1.210323,-0.318888 l 0,-1.297292 q 0.587043,0.318887 1.159591,0.471084 0.572548,0.152196 1.166839,0.152196 1.311788,0 1.964058,-0.688507 0.65227,-0.68126 0.65227,-2.065523 l 0,-0.659517 q -0.413104,0.717497 -1.058127,1.072622 -0.645023,0.355125 -1.543706,0.355125 -1.492974,0 -2.406152,-1.137849 -0.913179,-1.1378494 -0.913179,-3.0149379 0,-1.884336 0.913179,-3.0221851 0.913178,-1.137849 2.406152,-1.137849 0.898683,0 1.543706,0.3551248 0.645023,0.3551249 1.058127,1.0726221 l 0,-1.2320659 1.33353,0 0,7.109745 z" />
  </g>
</svg>
